<svg xmlns="http://www.w3.org/2000/svg" xmlns:xlink="http://www.w3.org/1999/xlink" width="1897.983" height="946.921" viewBox="0 0 1897.983 946.921"><defs><style>.a{opacity:0.203;fill:url(#a);}</style><linearGradient id="a" x1="0.5" x2="0.5" y2="1" gradientUnits="objectBoundingBox"><stop offset="0" stop-color="#f4631d"/><stop offset="1" stop-color="#cc30cc"/></linearGradient></defs><path class="a" d="M-500.918,0l-.615-258.3L-628.223-45.51h-44.9L-799.193-252.765V0h-93.48V-430.5h82.41l161.13,267.525L-490.463-430.5h81.795L-407.438,0ZM21.217-330.87V0H-69.8V-39.36a127.242,127.242,0,0,1-45.51,32.9A143.17,143.17,0,0,1-172.508,4.92q-65.19,0-103.32-37.515t-38.13-111.315V-330.87h95.94v172.815q0,79.95,67.035,79.95,34.44,0,55.35-22.447t20.91-66.728V-330.87ZM221.707,4.92A321.412,321.412,0,0,1,141.142-5.228q-39.36-10.147-62.73-25.522l31.98-68.88q22.14,14.145,53.505,23.063a224.249,224.249,0,0,0,61.5,8.917q60.885,0,60.885-30.135,0-14.145-16.605-20.3t-51.045-10.455q-40.59-6.15-67.035-14.145a104,104,0,0,1-45.818-28.29q-19.373-20.295-19.372-57.81,0-31.365,18.143-55.658t52.89-37.822q34.747-13.53,82.1-13.53a322.226,322.226,0,0,1,69.8,7.688q34.748,7.688,57.5,21.217l-31.98,68.265q-43.665-24.6-95.325-24.6-30.75,0-46.125,8.61t-15.375,22.14q0,15.375,16.605,21.525t52.89,11.685q40.59,6.765,66.42,14.452a99.783,99.783,0,0,1,44.9,27.983q19.065,20.295,19.065,56.58a87.372,87.372,0,0,1-18.45,54.735Q341.017-21.525,305.655-8.3T221.707,4.92Zm215.25-335.79H532.9V0h-95.94Zm47.97-46.125q-26.445,0-43.05-15.375T425.272-430.5q0-22.755,16.605-38.13t43.05-15.375q26.445,0,43.05,14.76t16.605,36.9q0,23.985-16.605,39.668T484.927-376.995ZM832.4,0l-72.57-101.475L684.8,0H580.253l127.3-166.665-123-164.205H692.182l70.11,96.555,71.955-96.555h102.09l-123,161.745L941.258,0Z" transform="matrix(0.966, -0.259, 0.259, 0.966, 987.525, 711.128)"/></svg>