<svg xmlns="http://www.w3.org/2000/svg" xmlns:xlink="http://www.w3.org/1999/xlink" width="319.638" height="86.165" viewBox="0 0 319.638 86.165"><defs><style>.a{opacity:0.4;fill:url(#a);}</style><linearGradient id="a" x1="0.5" x2="0.5" y2="1" gradientUnits="objectBoundingBox"><stop offset="0" stop-color="#f4631d"/><stop offset="1" stop-color="#cc30cc"/></linearGradient></defs><path class="a" d="M-147.136,9.083A43.083,43.083,0,0,1-104.053-34,43.083,43.083,0,0,1-60.971,9.083a43.082,43.082,0,0,1-43.082,43.082A43.083,43.083,0,0,1-147.136,9.083Zm8.339,0a34.726,34.726,0,0,0,34.744,34.744A34.725,34.725,0,0,0-69.309,9.083a34.725,34.725,0,0,0-34.744-34.745A34.726,34.726,0,0,0-138.8,9.083Zm10.911-.215a23.768,23.768,0,0,1,24.279-24.216c9.646,0,15.415,4.624,16.953,6.042a2.078,2.078,0,0,1,.337,2.661l-3.154,4.884a2.086,2.086,0,0,1-3.04.508,18.017,18.017,0,0,0-10.72-3.916c-8.392,0-13.536,6.138-13.536,13.912,0,7.224,4.671,14.539,13.6,14.539a17.481,17.481,0,0,0,11.417-4.729,2.086,2.086,0,0,1,3.1.3l3.451,4.72a2.075,2.075,0,0,1-.2,2.7,25.716,25.716,0,0,1-18.078,7.192C-117.8,33.461-127.886,22.79-127.886,8.868ZM32.272,26.192q-4.086-4.4-4.087-11.954v-.381A18.79,18.79,0,0,1,30,5.45,13.29,13.29,0,0,1,35.231-.264a15.259,15.259,0,0,1,7.925-2.021A14.436,14.436,0,0,1,53.63,1.641Q57.687,5.567,58.156,12.3l.059,2.168q0,7.294-4.073,11.7T43.214,30.586Q36.359,30.586,32.272,26.192Zm6.079-19.2q-1.7,2.417-1.7,7.485,0,4.512,1.7,6.9a5.61,5.61,0,0,0,4.863,2.388A5.622,5.622,0,0,0,48.02,21.4q1.728-2.358,1.729-7.544A11.7,11.7,0,0,0,48.02,7,5.622,5.622,0,0,0,43.156,4.57,5.529,5.529,0,0,0,38.352,6.988Zm-72.247,21.8a14.189,14.189,0,0,1-6.167-4.936,12.644,12.644,0,0,1-2.124-7.266h8.818q0,7.062,8.438,7.061a8.212,8.212,0,0,0,4.893-1.274,4.147,4.147,0,0,0,1.758-3.56,4.512,4.512,0,0,0-1.758-3.823,23.081,23.081,0,0,0-6.329-2.812A44.828,44.828,0,0,1-33.6,9.257q-7.266-3.926-7.266-10.576a10.3,10.3,0,0,1,1.949-6.167,12.712,12.712,0,0,1,5.6-4.234,21.071,21.071,0,0,1,8.188-1.524,19.174,19.174,0,0,1,8.145,1.656,12.962,12.962,0,0,1,5.552,4.673A12.232,12.232,0,0,1-9.461-.059H-18.25A5.75,5.75,0,0,0-20.1-4.614a7.587,7.587,0,0,0-5.185-1.626,8.109,8.109,0,0,0-5.01,1.363,4.3,4.3,0,0,0-1.787,3.589A4.112,4.112,0,0,0-29.984,2.2a23.651,23.651,0,0,0,6.167,2.637q7.5,2.256,10.928,5.6a11.142,11.142,0,0,1,3.428,8.32,10.266,10.266,0,0,1-4.189,8.687q-4.189,3.15-11.28,3.149A21.779,21.779,0,0,1-33.895,28.784ZM164.035,30V9.726a5.491,5.491,0,0,0-1.172-3.911,5.244,5.244,0,0,0-3.9-1.216,5.824,5.824,0,0,0-5.361,3.046V30h-8.467V-1.7h7.969l.264,3.662a11.068,11.068,0,0,1,9.112-4.248q5.04,0,7.5,2.959t2.52,8.847V30Zm-34.189,0V-1.7h8.5V30Zm-22.325,0V-1.7h8l.234,3.779q2.549-4.365,7.061-4.365a8.872,8.872,0,0,1,2.636.381l-.117,8.145a22.948,22.948,0,0,0-3.046-.235q-4.8,0-6.3,3.252V30ZM88.156,30,82.15,10.049,76.145,30H69.084L61-1.7h8.174L73.3,18.457,79.1-1.7h6.123L91,18.486,95.158-1.7h8.174L95.246,30ZM14.65,30V9.932A5.891,5.891,0,0,0,13.478,5.9a5.026,5.026,0,0,0-3.9-1.3A5.763,5.763,0,0,0,4.191,7.471V30H-4.275V-15H4.191V1.758a10.568,10.568,0,0,1,8.467-4.043q10.313,0,10.459,11.983V30Zm116-36.738a4.155,4.155,0,0,1-1.3-3.164,4.171,4.171,0,0,1,1.274-3.135,4.788,4.788,0,0,1,3.471-1.23,4.8,4.8,0,0,1,3.457,1.23A4.146,4.146,0,0,1,138.839-9.9a4.155,4.155,0,0,1-1.3,3.164,4.813,4.813,0,0,1-3.443,1.23A4.813,4.813,0,0,1,130.651-6.738Z" transform="translate(147.136 34)"/></svg>