<svg xmlns="http://www.w3.org/2000/svg" xmlns:xlink="http://www.w3.org/1999/xlink" width="72.957" height="72.955" viewBox="0 0 72.957 72.955"><defs><style>.a{opacity:0.703;}.b{fill:url(#a);}</style><linearGradient id="a" x1="0.5" y1="1" x2="0.5" gradientUnits="objectBoundingBox"><stop offset="0" stop-color="#f4631d"/><stop offset="1" stop-color="#cc30cc"/></linearGradient></defs><g class="a"><path class="b" d="M2.879,55.877A2.88,2.88,0,0,0,5.759,53V33.8A2.879,2.879,0,0,0,0,33.8V53A2.877,2.877,0,0,0,2.879,55.877Z" transform="translate(67.198 -6.839)"/><path class="b" d="M8.292,62.711a2.879,2.879,0,0,0,2.879-2.879v-38.4a2.879,2.879,0,1,0-5.759,0v38.4A2.879,2.879,0,0,0,8.292,62.711Z" transform="translate(53.383 -4.072)"/><path class="b" d="M13.7,59.293a2.881,2.881,0,0,0,2.879-2.879v-28.8a2.879,2.879,0,0,0-5.759,0v28.8A2.88,2.88,0,0,0,13.7,59.293Z" transform="translate(39.572 -5.539)"/><path class="b" d="M19.116,66.124a2.879,2.879,0,0,0,2.878-2.879v-48a2.879,2.879,0,1,0-5.757,0v48A2.879,2.879,0,0,0,19.116,66.124Z" transform="translate(25.758 -2.77)"/><path class="b" d="M24.528,72.955a2.88,2.88,0,0,0,2.879-2.879V2.878a2.879,2.879,0,0,0-5.759,0v67.2A2.881,2.881,0,0,0,24.528,72.955Z" transform="translate(11.944)"/><path class="b" d="M40.758,59.293a2.881,2.881,0,0,0,2.878-2.879v-28.8a2.878,2.878,0,0,0-5.756,0v28.8A2.875,2.875,0,0,0,40.758,59.293Z" transform="translate(-29.479 -5.539)"/><path class="b" d="M46.17,66.124a2.879,2.879,0,0,0,2.878-2.879v-48a2.879,2.879,0,0,0-5.757,0v48A2.88,2.88,0,0,0,46.17,66.124Z" transform="translate(-43.291 -2.77)"/><path class="b" d="M29.939,62.709a2.878,2.878,0,0,0,2.878-2.879v-38.4a2.878,2.878,0,1,0-5.756,0v38.4A2.876,2.876,0,0,0,29.939,62.709Z" transform="translate(-1.866 -4.07)"/><path class="b" d="M35.351,52.462a2.878,2.878,0,0,0,2.878-2.878v-9.6a2.878,2.878,0,1,0-5.756,0v9.6A2.875,2.875,0,0,0,35.351,52.462Z" transform="translate(-15.679 -8.308)"/></g></svg>