<svg xmlns="http://www.w3.org/2000/svg" xmlns:xlink="http://www.w3.org/1999/xlink" width="72.957" height="72.955" viewBox="0 0 72.957 72.955"><defs><style>.a{opacity:0.703;}.b{fill:url(#a);}</style><linearGradient id="a" x1="0.5" x2="0.5" y2="1" gradientUnits="objectBoundingBox"><stop offset="0" stop-color="#f4631d"/><stop offset="1" stop-color="#cc30cc"/></linearGradient></defs><g class="a"><path class="b" d="M2.879,30.921A2.88,2.88,0,0,0,0,33.8V53a2.879,2.879,0,0,0,5.759,0V33.8A2.877,2.877,0,0,0,2.879,30.921Z" transform="translate(0 -7.003)"/><path class="b" d="M8.292,18.553a2.879,2.879,0,0,0-2.879,2.879v38.4a2.879,2.879,0,1,0,5.759,0v-38.4A2.879,2.879,0,0,0,8.292,18.553Z" transform="translate(2.989 -4.236)"/><path class="b" d="M13.7,24.736a2.881,2.881,0,0,0-2.879,2.879v28.8a2.879,2.879,0,0,0,5.759,0v-28.8A2.88,2.88,0,0,0,13.7,24.736Z" transform="translate(5.978 -5.535)"/><path class="b" d="M19.115,12.369a2.879,2.879,0,0,0-2.878,2.879v48a2.879,2.879,0,1,0,5.757,0v-48A2.879,2.879,0,0,0,19.115,12.369Z" transform="translate(8.967 -2.768)"/><path class="b" d="M24.528,0a2.88,2.88,0,0,0-2.879,2.879v67.2a2.879,2.879,0,0,0,5.759,0V2.879A2.881,2.881,0,0,0,24.528,0Z" transform="translate(11.956)"/><path class="b" d="M40.758,24.736a2.881,2.881,0,0,0-2.878,2.879v28.8a2.878,2.878,0,0,0,5.756,0v-28.8A2.875,2.875,0,0,0,40.758,24.736Z" transform="translate(20.92 -5.535)"/><path class="b" d="M46.169,12.369a2.879,2.879,0,0,0-2.878,2.879v48a2.879,2.879,0,0,0,5.757,0v-48A2.88,2.88,0,0,0,46.169,12.369Z" transform="translate(23.909 -2.768)"/><path class="b" d="M29.939,18.553a2.878,2.878,0,0,0-2.878,2.879v38.4a2.878,2.878,0,1,0,5.756,0v-38.4A2.876,2.876,0,0,0,29.939,18.553Z" transform="translate(14.945 -4.236)"/><path class="b" d="M35.351,37.105a2.878,2.878,0,0,0-2.878,2.878v9.6a2.878,2.878,0,1,0,5.756,0v-9.6A2.875,2.875,0,0,0,35.351,37.105Z" transform="translate(17.934 -8.303)"/></g></svg>