<svg xmlns="http://www.w3.org/2000/svg" xmlns:xlink="http://www.w3.org/1999/xlink" width="132.129" height="43.995" viewBox="0 0 132.129 43.995"><defs><style>.a{stroke:rgba(0,0,0,0);stroke-miterlimit:10;fill:url(#a);}</style><linearGradient id="a" x1="0.5" x2="0.5" y2="1" gradientUnits="objectBoundingBox"><stop offset="0" stop-color="#f4631d"/><stop offset="1" stop-color="#cc30cc"/></linearGradient></defs><path class="a" d="M23.433-1154.889c0-1.981,2.165-3.807,4.539-3.807a4.521,4.521,0,0,1,.872.084v-11.681l14.417-3.21v15.554a3.972,3.972,0,0,1-4.038,4.153,2.915,2.915,0,0,1-3.172-2.9c0-1.978,2.165-3.794,4.533-3.794a4.517,4.517,0,0,1,.874.084v-7.725l-10.815,2.2v9.764a3.991,3.991,0,0,1-4.07,4.156A2.881,2.881,0,0,1,23.433-1154.889ZM0-1175.294A19.768,19.768,0,0,1,19.828-1195,19.759,19.759,0,0,1,39.6-1176.358l-3.565.794a16.186,16.186,0,0,0-16.208-15.853,16.192,16.192,0,0,0-16.223,16.123,16.192,16.192,0,0,0,16.223,16.123c.562,0,1.119-.03,1.667-.084a6.917,6.917,0,0,0-1.583,3.664l-.085,0A19.768,19.768,0,0,1,0-1175.294Zm5.972,3.94,1.8-.224a12.647,12.647,0,0,0,8.315,8.264l-.225,1.792A14.393,14.393,0,0,1,5.972-1171.354Zm88.972,7.371a9.408,9.408,0,0,1-2.8-1.131l1.426-3.052a9,9,0,0,0,2.386,1.022,10.058,10.058,0,0,0,2.742.4q2.715,0,2.715-1.335a.946.946,0,0,0-.74-.9,11.028,11.028,0,0,0-2.276-.464,22.045,22.045,0,0,1-2.989-.627,4.641,4.641,0,0,1-2.043-1.254,3.551,3.551,0,0,1-.864-2.562,4,4,0,0,1,.809-2.467,5.206,5.206,0,0,1,2.358-1.676,10.127,10.127,0,0,1,3.661-.6,14.449,14.449,0,0,1,3.112.341,8.733,8.733,0,0,1,2.564.94l-1.426,3.025a8.553,8.553,0,0,0-4.251-1.09,4.35,4.35,0,0,0-2.057.382,1.122,1.122,0,0,0-.686.981.975.975,0,0,0,.74.954,13.185,13.185,0,0,0,2.358.518,25.36,25.36,0,0,1,2.962.641,4.453,4.453,0,0,1,2,1.24,3.506,3.506,0,0,1,.85,2.508,3.857,3.857,0,0,1-.823,2.426,5.252,5.252,0,0,1-2.4,1.649,10.753,10.753,0,0,1-3.743.586A14.408,14.408,0,0,1,94.944-1163.984ZM76.351-1165.2a6.6,6.6,0,0,1-1.7-4.933v-8.285h4.278v7.658q0,3.543,2.989,3.543a3.224,3.224,0,0,0,2.468-.995,4.18,4.18,0,0,0,.932-2.957v-7.25H89.6v14.663H85.538v-1.744a5.672,5.672,0,0,1-2.029,1.458,6.417,6.417,0,0,1-2.55.5A6.305,6.305,0,0,1,76.351-1165.2Zm49.415,1.444-3.236-4.5-3.346,4.5h-4.662l5.676-7.386-5.484-7.277h4.8l3.126,4.279,3.208-4.279H130.4l-5.485,7.168,5.7,7.495Zm-17.633,0v-14.663h4.278v14.663Zm-41.819,0-.027-11.447-5.649,9.43h-2l-5.622-9.185v11.2H48.847v-19.078h3.675l7.185,11.856,7.075-11.856h3.647l.055,19.078Zm-56.707-8.054,1.848-.229a9,9,0,0,0,5.1,5.064l-.229,1.836A10.8,10.8,0,0,1,9.607-1171.806Zm4.813-3.488a5.391,5.391,0,0,1,5.408-5.374,5.391,5.391,0,0,1,5.408,5.374,5.391,5.391,0,0,1-5.408,5.375A5.391,5.391,0,0,1,14.42-1175.294Zm1.8,0a3.6,3.6,0,0,0,3.605,3.583,3.6,3.6,0,0,0,3.605-3.583,3.6,3.6,0,0,0-3.605-3.583A3.6,3.6,0,0,0,16.223-1175.294Zm6.882-8.323h0l.229-1.836a10.8,10.8,0,0,1,6.714,6.673l-1.848.229A9,9,0,0,0,23.1-1183.617Zm.46-3.656.225-1.792a14.377,14.377,0,0,1,9.892,9.832l-1.8.224A12.636,12.636,0,0,0,23.565-1187.274Zm84.789,6.134a2.2,2.2,0,0,1-.74-1.69,2.2,2.2,0,0,1,.74-1.69,2.723,2.723,0,0,1,1.92-.681,2.792,2.792,0,0,1,1.92.654,2.092,2.092,0,0,1,.74,1.635,2.308,2.308,0,0,1-.74,1.758,2.692,2.692,0,0,1-1.92.695A2.723,2.723,0,0,1,108.353-1181.14Z" transform="translate(0.5 1195.5)"/></svg>