<svg xmlns="http://www.w3.org/2000/svg" xmlns:xlink="http://www.w3.org/1999/xlink" width="345.192" height="345.192" viewBox="0 0 345.192 345.192"><defs><style>.a{stroke:rgba(0,0,0,0);stroke-miterlimit:10;opacity:0.2;fill:url(#a);}</style><linearGradient id="a" x1="0.5" x2="0.5" y2="1" gradientUnits="objectBoundingBox"><stop offset="0" stop-color="#f4631d"/><stop offset="1" stop-color="#cc30cc"/></linearGradient></defs><path class="a" d="M344.192,296.607c-.029,22.3-16.779,33.243-32.125,33.243-12.95,0-25.241-7.8-25.241-23.176,0-15.833,17.224-30.375,36.068-30.375a35.829,35.829,0,0,1,6.956.674v-61.84L243.8,232.76v78.16c-.029,22.315-16.923,33.272-32.383,33.272-12.993,0-24.983-7.773-24.983-23.09,0-15.861,17.224-30.475,36.111-30.475a35.789,35.789,0,0,1,6.941.674V197.8l114.7-25.7ZM157.755,200.779a43.024,43.024,0,1,1,43.024-43.024A43.021,43.021,0,0,1,157.755,200.779Zm0-14.341a28.683,28.683,0,1,0-28.683-28.683A28.712,28.712,0,0,0,157.755,186.437Zm-26.073,37.947a71.813,71.813,0,0,1-40.543-40.543l-14.7,1.836a86.158,86.158,0,0,0,53.421,53.407l1.821-14.7ZM61.854,187.5l-14.341,1.793A114.867,114.867,0,0,0,126.218,268l1.793-14.341A100.927,100.927,0,0,1,61.854,187.5ZM183.827,91.125a71.8,71.8,0,0,1,40.543,40.557l14.7-1.836a86.214,86.214,0,0,0-53.421-53.421l-1.821,14.7Zm-25.4,224.356a55.541,55.541,0,0,1,12.592-29.328c-4.36.43-8.791.674-13.266.674a129.072,129.072,0,0,1,0-258.144c70.445,0,127.781,56.749,128.957,126.906l28.367-6.353C310.619,66.085,242,0,157.755,0a157.755,157.755,0,0,0,0,315.509ZM189.277,47.513l-1.793,14.341a100.838,100.838,0,0,1,66.157,66.157l14.341-1.793A114.735,114.735,0,0,0,189.277,47.513Z" transform="translate(0.5 0.5)"/></svg>